<?xml version="1.0" standalone="no"?>
<!DOCTYPE svg PUBLIC "-//W3C//DTD SVG 1.1//EN" "http://www.w3.org/Graphics/SVG/1.1/DTD/svg11.dtd" >
<svg xmlns="http://www.w3.org/2000/svg" xmlns:xlink="http://www.w3.org/1999/xlink" version="1.1">
<metadata>
Created by FontForge 20190801 at Fri Aug  5 22:41:50 2022
 By www-data
(c) 2022 Variatype
</metadata>
<defs>
<font id="Classyvogueregular" horiz-adv-x="0" >
  <font-face 
    font-family="Classyvogueregular"
    font-weight="400"
    font-stretch="normal"
    units-per-em="1000"
    panose-1="0 0 0 0 0 0 0 0 0 0"
    ascent="800"
    descent="-200"
    x-height="484"
    cap-height="707"
    bbox="-49 -228.048 958 728"
    underline-thickness="0"
    underline-position="0"
    unicode-range="U+000A-00A0"
  />
<missing-glyph horiz-adv-x="527" 
d="M477 700v-700h-427v700h427zM263 371l186 309h-371zM457 47v605l-181 -302zM71 650v-601l180 301zM79 21h370l-185 308z" />
    <glyph glyph-name=".notdef" horiz-adv-x="527" 
d="M477 700v-700h-427v700h427zM263 371l186 309h-371zM457 47v605l-181 -302zM71 650v-601l180 301zM79 21h370l-185 308z" />
    <glyph glyph-name="uni0000" 
 />
    <glyph glyph-name="uni0000" 
 />
    <glyph glyph-name="uni000D" unicode="&#xd;" 
 />
    <glyph glyph-name="uni000A" unicode="&#xa;" 
 />
    <glyph glyph-name="space" unicode=" " horiz-adv-x="295" 
 />
    <glyph glyph-name="exclam" unicode="!" horiz-adv-x="217" 
d="M52 650q-1 2 -1 5v4q0 24 17 41t41 17q30 0 44 -20t14 -47l-50 -484h-16zM109 112q24 -1 41 -18t17 -41t-16.5 -41t-40.5 -17q-25 0 -42 17q-13 13 -16.5 30t3.5 34q8 16 22.5 26t31.5 10z" />
    <glyph glyph-name="quotedbl" unicode="&#x22;" horiz-adv-x="230" 
d="M63 717q14 0 23.5 -9.5t9.5 -23.5q0 -3 -2 -11l-26 -126h-10l-26 126q-2 8 -2 11q0 14 9.5 23.5t23.5 9.5zM166 717q18 0 27 -14q10 -13 4 -30l-25 -126h-11l-26 126q-2 8 -1.5 16t5.5 14q5 7 12 10.5t15 3.5z" />
    <glyph glyph-name="numbersign" unicode="#" horiz-adv-x="629" 
d="M426 435l-34 -158h150l-3 -16h-150l-32 -149h-16l32 149h-157l-32 -149h-16l32 149h-150l3 16h150l34 158h-150l3 15h150l32 150h16l-32 -150h157l32 150h16l-32 -150h150l-3 -15h-150zM410 435h-157l-34 -158h158z" />
    <glyph glyph-name="percent" unicode="%" horiz-adv-x="645" 
d="M566 709l-474 -714l-13 8l474 714zM183 388q-36 0 -60.5 14t-39.5 37.5t-21.5 53t-6.5 60.5t6.5 60.5t21.5 52.5t39.5 37t60.5 14t60.5 -14t39.5 -37t21.5 -52.5t6.5 -60.5t-6 -60.5t-21 -53t-39.5 -37.5t-61.5 -14zM183 710q-44 0 -63.5 -41t-19.5 -116t19.5 -116.5
t63.5 -41.5t64 40.5t20 117.5q0 76 -20 116.5t-64 40.5zM461 324q36 0 60.5 -14t39.5 -37t21.5 -52.5t6.5 -60.5t-6 -60.5t-21 -53t-39.5 -37.5t-61.5 -14q-36 0 -60.5 14t-39.5 37.5t-21.5 53t-6.5 60.5t6.5 60.5t21.5 52.5t39.5 37t60.5 14zM461 2q44 0 63.5 40.5
t19.5 117.5q0 76 -19.5 116.5t-63.5 40.5t-63.5 -41t-19.5 -116t19.5 -116.5t63.5 -41.5z" />
    <glyph glyph-name="ampersand" unicode="&#x26;" horiz-adv-x="772" 
d="M727 368q-33 0 -56.5 -10t-41 -26.5t-30.5 -36t-25 -39.5q-16 -25 -33 -49.5t-36 -47.5q25 -23 49 -43.5t46.5 -36t42.5 -24.5t36 -9q13 0 19.5 5.5t8.5 11.5q4 7 4 17h11q0 -24 -8 -42q-8 -17 -25 -30t-50 -13q-48 0 -97.5 30t-94.5 71q-48 -44 -103 -72.5t-120 -28.5
q-50 0 -86 14.5t-59 38.5t-33.5 54.5t-10.5 63.5q0 38 13 69t34 55t47 41.5t53 29.5q-44 47 -69 91t-25 97q0 80 49 124t129 44q86 0 129 -42.5t43 -117.5q0 -41 -18.5 -71.5t-43.5 -51.5t-50.5 -33.5t-40.5 -17.5q15 -15 30.5 -31t32.5 -33q31 -32 68.5 -71.5t76.5 -77.5
q19 23 35.5 46.5t32.5 48.5q22 34 23 54.5t-10 31t-30.5 13.5t-39.5 3v10h223v-9zM164 597q0 -57 31.5 -105.5t80.5 -98.5q15 11 30 28t27 40t19.5 51t7.5 61q0 4 -0.5 24.5t-8.5 43.5t-28 41.5t-58 18.5q-54 0 -77.5 -31t-23.5 -73zM284 41q37 0 74.5 16t75.5 51
q-35 32 -64.5 63.5t-51.5 53.5q-36 35 -67.5 66t-58.5 59q-7 -4 -13 -10q-36 -36 -49.5 -87t-2.5 -98.5t49.5 -80.5t107.5 -33z" />
    <glyph glyph-name="quotesingle" unicode="'" horiz-adv-x="126" 
d="M63 717q14 0 23.5 -9.5t9.5 -23.5q0 -3 -2 -11l-26 -126h-10l-26 126q-2 8 -2 11q0 14 9.5 23.5t23.5 9.5z" />
    <glyph glyph-name="parenleft" unicode="(" horiz-adv-x="281" 
d="M251 701q-56 0 -86.5 -102.5t-30.5 -292.5q0 -82 6.5 -154t20.5 -125.5t36 -84.5t54 -31v-15q-46 0 -85.5 37.5t-68.5 96.5t-45.5 132t-16.5 144q0 78 18 152t48 131.5t69 92.5t81 35v-16z" />
    <glyph glyph-name="parenright" unicode=")" horiz-adv-x="281" 
d="M30 717q42 0 81 -35t69 -92.5t48 -131.5t18 -152q0 -71 -16.5 -144t-45.5 -132t-68.5 -96.5t-85.5 -37.5v15q32 0 54 31t36 84.5t20.5 125.5t6.5 154q0 190 -30.5 292.5t-86.5 102.5v16z" />
    <glyph glyph-name="asterisk" unicode="*" horiz-adv-x="347" 
d="M282 549q14 -8 14 -24t-14 -24t-28 0q-3 2 -11.5 9t-19 16.5t-22 19.5t-19.5 17q3 -11 6 -25.5t5.5 -28.5t4.5 -25t2 -14q1 -15 -13 -24q-15 -8 -28 0q-14 8 -14 24q0 3 2 14t5 25t6 28.5t5 25.5q-8 -7 -19.5 -17t-22 -19.5t-19 -16.5t-11.5 -9q-6 -3 -14 -3
q-16 0 -23 13q-6 10 -3 21t13 17q3 2 13 5.5t23.5 8t28 9.5t25.5 8q-11 3 -25.5 8t-28 9.5t-23.5 8.5t-13 5q-10 6 -13 17t3 21q7 13 23 13q8 0 14 -3q3 -2 11.5 -9t19 -16.5t22 -19t19.5 -17.5q-2 11 -5 25.5t-6 28.5t-5 25t-2 14q1 11 9 19t19 8t19 -8t8 -19q0 -3 -2 -14
t-4.5 -25t-5.5 -28.5t-6 -25.5q8 8 19.5 17.5t22 19t19 16.5t11.5 9q14 8 28 0t14 -24t-14 -24q-3 -1 -13.5 -5t-24 -8.5t-27.5 -9.5t-25 -8q11 -3 25 -8t27.5 -9.5l24 -8t13.5 -5.5z" />
    <glyph glyph-name="plus" unicode="+" horiz-adv-x="424" 
d="M380 364v-16h-160v-159h-16v159h-159v16h159v159h16v-159h160z" />
    <glyph glyph-name="comma" unicode="," horiz-adv-x="207" 
d="M161 53q1 -22 -6 -44q-7 -19 -22 -40t-45 -38h-11q7 9 13 20q5 9 9 20.5t4 23.5q-24 0 -41 17t-17 41t17 41t41 17t41 -17t17 -41z" />
    <glyph glyph-name="hyphen" unicode="-" horiz-adv-x="459" 
d="M25 280v15h409v-15h-409z" />
    <glyph glyph-name="period" unicode="." horiz-adv-x="208" 
d="M104 112q24 -1 41 -18t17 -41t-16.5 -41t-40.5 -17q-25 0 -42 17q-13 13 -16.5 30t3.5 34q8 16 22.5 26t31.5 10z" />
    <glyph glyph-name="slash" unicode="/" horiz-adv-x="373" 
d="M332 707l-275 -701h-17l275 701h17z" />
    <glyph glyph-name="zero" unicode="0" horiz-adv-x="643" 
d="M321 717q79 0 133 -31t87 -81.5t47 -115.5t14 -133t-13.5 -133t-46 -115.5t-86.5 -81.5t-135 -31q-80 0 -134 31t-86.5 81.5t-46.5 115.5t-14 133t14 133t47 115.5t87 81.5t133 31zM321 11q96 0 139.5 89t43.5 256t-43.5 256t-139.5 89q-95 0 -138.5 -90.5t-43.5 -254.5
t43.5 -254.5t138.5 -90.5z" />
    <glyph glyph-name="one" unicode="1" horiz-adv-x="265" 
d="M178 45q0 -8 3 -14t8 -10.5t15 -4.5v-10h-144v10q10 0 15.5 4.5t7.5 10.5q3 6 3 14v577h-26v10l108 85h10v-672z" />
    <glyph glyph-name="two" unicode="2" horiz-adv-x="548" 
d="M459 91q8 0 14 3q5 2 9.5 7.5t4.5 14.5h11v-110h-453v11q0 66 15.5 114t40.5 84.5t57 63t65.5 48.5t65.5 42t56.5 43t40 52t15.5 69q0 10 -0.5 37.5t-10.5 56.5t-34 51.5t-72 22.5q-37 0 -61.5 -14t-39 -39.5t-20.5 -60t-6 -75.5h-93q0 36 11 72.5t37 66t68 48t103 18.5
q66 0 108 -18t65.5 -46t32.5 -63t9 -69q0 -61 -29 -100t-73.5 -66.5t-97 -49.5t-100.5 -49.5t-83.5 -65.5t-45.5 -99h390z" />
    <glyph glyph-name="three" unicode="3" horiz-adv-x="578" 
d="M358 361q81 -16 127.5 -59.5t46.5 -117.5q0 -55 -22 -91t-57 -58t-77 -31t-83 -9q-47 0 -83 10.5t-62 28t-43.5 40t-28 46t-15.5 46.5t-6 41h99q2 -92 34.5 -144t107.5 -52q68 0 102.5 41.5t34.5 133.5q0 48 -14.5 79.5t-38 50t-53.5 26t-62 7.5v1q-2 0 -11.5 -0.5
t-19.5 -0.5h-26v20l54 1q32 0 60.5 8t50 27t34 50.5t12.5 77.5q0 83 -29 125.5t-96 42.5q-66 0 -95 -49t-30 -147h-99q1 27 10 63.5t33.5 69.5t68 56t113.5 23q44 0 84 -11t71 -34.5t49 -59t18 -84.5q0 -66 -42 -108t-117 -59z" />
    <glyph glyph-name="four" unicode="4" horiz-adv-x="530" 
d="M420 168v-123q0 -8 3 -14t8 -10.5t15 -4.5v-10h-144v10q10 0 15 4.5t7 10.5q3 6 3 14v123h-312v10l396 539h9v-533h60v-16h-60zM327 577l-288 -393h288v393z" />
    <glyph glyph-name="five" unicode="5" horiz-adv-x="563" 
d="M271 425q64 0 111 -15.5t78 -43t46.5 -65.5t15.5 -83q0 -64 -22 -106.5t-57 -68.5t-77 -37t-83 -11q-71 0 -116.5 23t-72 56t-37 69.5t-12.5 64.5h99q2 -93 34.5 -145t107.5 -52q38 0 64 15t42.5 42.5t24 65.5t7.5 84q0 24 -3 57t-18.5 62.5t-47.5 50.5t-89 21
q-37 0 -69 -11t-56 -24.5t-38 -25t-16 -13.5h-16l52 371l327 1q6 0 12 2q4 2 7.5 6.5t3.5 12.5h10v-106h-356l-37 -263q80 63 181 66z" />
    <glyph glyph-name="six" unicode="6" horiz-adv-x="587" 
d="M312 425q25 0 63 -6t74 -28t62 -64t26 -113q0 -57 -18 -98.5t-49.5 -68.5t-74 -39.5t-91.5 -12.5q-75 0 -125.5 27t-81 75.5t-44 116t-13.5 147.5q0 23 3 58.5t12.5 75t27 79t46 71.5t69.5 52t98 20q69 0 112.5 -22t68.5 -54t34 -67t9 -62h-93q0 19 -3 51t-16 62.5
t-39.5 53t-73.5 22.5q-38 0 -64.5 -17.5t-43.5 -45.5t-27 -64.5t-14.5 -74t-5.5 -73.5t-1 -64v-16q33 37 78 57.5t95 21.5zM303 11q41 0 67.5 16t41.5 44.5t20.5 66.5t5.5 82q0 40 -5.5 74.5t-20 60t-39.5 40.5t-63 15t-68 -12t-52 -27.5t-34.5 -30t-16.5 -19.5
q1 -57 8 -113t25 -99.5t49.5 -70.5t81.5 -27z" />
    <glyph glyph-name="seven" unicode="7" horiz-adv-x="477" 
d="M456 707q0 -62 -10.5 -106t-27 -78.5t-38 -62.5t-44 -57t-44.5 -63t-38.5 -80t-27 -107.5t-10.5 -146.5h-99q0 95 20.5 162t52 117.5t69 89t73 75t63 77t38.5 94.5h-384q-8 0 -14 -3q-5 -2 -9.5 -7t-4.5 -15h-11v110z" />
    <glyph glyph-name="eight" unicode="8" horiz-adv-x="560" 
d="M373 367q31 -16 57.5 -34.5t46 -41t31 -50t11.5 -61.5q0 -46 -17 -80.5t-47.5 -57.5t-74 -35t-96.5 -12q-18 0 -43.5 2.5t-52.5 9.5t-53.5 20t-47.5 34t-34 50.5t-13 70.5q0 46 20 79.5t45 55t47 32.5l26 13q-21 13 -40.5 29.5t-34.5 37.5t-23.5 46.5t-8.5 55.5
q0 43 15.5 77.5t43.5 58.5t67 37t85 13q40 0 76.5 -11t64.5 -33.5t44.5 -57.5t16.5 -83q0 -35 -11.5 -62.5t-28.5 -47.5t-36 -33.5t-35 -21.5zM148 575q0 -28 12.5 -52t32.5 -44t44 -37t47.5 -30t43.5 -22t31 -15q17 20 32 57.5t15 100.5q0 27 -5 57t-19.5 54.5t-40 40.5
t-67.5 16q-23 0 -45.5 -7t-40.5 -22.5t-29 -39.5t-11 -57zM288 11q73 0 110 35t37 91q0 42 -26.5 74t-64 57.5t-79 45.5t-72.5 38q-13 -12 -25 -30t-20 -40.5t-13 -48t-5 -51.5q0 -21 5.5 -50.5t22.5 -56t48 -45.5t82 -19z" />
    <glyph glyph-name="nine" unicode="9" horiz-adv-x="587" 
d="M283 717q75 0 125.5 -27t81 -75.5t44 -115.5t13.5 -148q0 -23 -3 -58t-13 -74.5t-27 -79.5t-46 -72t-70 -52t-98 -20q-69 0 -112 22t-68 54t-34 67t-9 62h93q0 -19 3 -50.5t16 -62.5t39.5 -53.5t73.5 -22.5q38 0 64.5 17.5t43.5 45.5t27 64.5t14.5 74t5.5 74t1 64.5v16
q-33 -38 -78 -58.5t-95 -21.5q-11 0 -31.5 1.5t-45.5 7.5t-51.5 19t-48 36t-35 58t-13.5 86q0 60 21.5 102t55 69t75 39t81.5 12zM276 303q38 0 68.5 12t52 27t34.5 29.5t17 19.5q-1 58 -8 113.5t-25 99t-49.5 70.5t-81.5 27q-41 0 -67.5 -19t-41.5 -49t-20.5 -67t-5.5 -73
q0 -33 5.5 -67t20 -61t39 -44.5t62.5 -17.5z" />
    <glyph glyph-name="colon" unicode=":" horiz-adv-x="208" 
d="M104 378q-24 0 -41 17t-17 41t17 41t41 17t41 -17t17 -41t-17 -41t-41 -17zM104 112q24 -1 41 -18t17 -41t-16.5 -41t-40.5 -17q-25 0 -42 17q-13 13 -16.5 30t3.5 34q8 16 22.5 26t31.5 10z" />
    <glyph glyph-name="semicolon" unicode=";" horiz-adv-x="207" 
d="M103 378q-24 0 -41 17t-17 41t17 41t41 17t41 -17t17 -41t-17 -41t-41 -17zM161 53q1 -22 -6 -44q-7 -19 -22 -40t-45 -38h-11q7 9 13 20q5 9 9 20.5t4 23.5q-24 0 -41 17t-17 41t17 41t41 17t41 -17t17 -41z" />
    <glyph glyph-name="equal" unicode="=" horiz-adv-x="405" 
d="M35 419v16h335v-16h-335zM35 276v16h335v-16h-335z" />
    <glyph glyph-name="question" unicode="?" horiz-adv-x="487" 
d="M243 717q66 0 107 -17.5t63.5 -43.5t30.5 -55.5t8 -53.5q0 -52 -16.5 -82.5t-41.5 -52t-54 -38.5t-54 -42t-41.5 -63.5t-16.5 -102.5h-16q0 61 10.5 101.5t26.5 69.5t34.5 50t34.5 43t26.5 49t10.5 68q0 8 -1.5 33t-12 52t-33 48t-64.5 21q-34 0 -56 -13.5t-35 -36.5
t-19 -52.5t-7 -62.5h-92q3 33 14.5 65.5t36 58t63 41.5t94.5 16zM220 112q24 -1 41 -18t17 -41t-17.5 -41t-40.5 -17q-24 0 -41 17q-13 13 -16.5 30t3.5 34q7 16 21.5 26t32.5 10z" />
    <glyph glyph-name="at" unicode="@" horiz-adv-x="716" 
d="M358 651q68 0 127.5 -25.5t104 -70t70.5 -104t26 -127.5v-1q0 -11 -3 -30t-10.5 -41.5t-22 -45t-37.5 -41t-57 -30.5t-81 -12q-15 0 -30.5 4t-26.5 12.5t-16.5 22.5t-1.5 33q0 2 1 3v2q-14 -26 -40 -42.5t-71 -16.5q-28 0 -54.5 9t-45 30t-26 56t3.5 87t31 87t46 56
t56.5 30t61.5 9q45 0 65 -13.5t25 -36.5l8 39h93l-64 -312q-3 -15 6 -26t30 -11t46 11.5t47 34t36.5 56t14.5 77.5q0 65 -25 122t-67.5 99t-99.5 66t-121 24q-87 0 -161.5 -45t-115.5 -124q-24 -48 -31 -100t3 -102.5t35.5 -96t66.5 -80.5q44 -38 96.5 -57t107.5 -19
q48 0 94 14.5t87 43.5l16 -8q-44 -33 -94 -49.5t-103 -16.5q-50 0 -98.5 15t-91.5 46t-74 73t-47 90.5t-16.5 100.5t15.5 103t46.5 93t72 72t90.5 46.5t103 16.5zM442 399q2 12 2.5 27.5t-4 29.5t-15.5 23.5t-31 9.5q-28 0 -49.5 -17.5t-37.5 -43t-26 -54t-15 -51.5
q-6 -27 -6.5 -56t6 -52.5t21 -38.5t39.5 -15q8 0 20 2.5t25 14.5t25.5 37.5t21.5 70.5z" />
    <glyph glyph-name="A" unicode="A" horiz-adv-x="689" 
d="M647 45q8 -17 16 -23t20 -6v-10h-154v10q16 0 21 8t0 19l-90 214h-284l-82 -195q-7 -17 2.5 -31.5t35.5 -14.5v-10h-127v10q24 -1 44 12t29 36l274 653h8zM453 273l-136 320l-134 -320h270z" />
    <glyph glyph-name="B" unicode="B" horiz-adv-x="640" 
d="M397 373q42 -4 79.5 -14.5t66 -31.5t45 -53.5t16.5 -81.5q0 -66 -27.5 -103.5t-79 -55.5t-124.5 -22.5t-164 -4.5h-159v10q10 0 15.5 4.5t7.5 10.5q3 6 3 14v623q0 8 -3 14q-2 5 -7.5 9.5t-15.5 4.5v11h132q87 0 159 -1.5t124 -16.5t80.5 -50.5t28.5 -104.5
q0 -37 -12 -64.5t-35 -46.5t-56 -31t-74 -19zM168 377q27 0 52 1h76q37 2 69.5 9t57 24t38.5 46.5t14 76.5q0 65 -25 97.5t-66 46t-93.5 13.5h-108.5h-14v-314zM255 22q13 0 37 -0.5t52 3t56.5 12.5t52 28t38.5 50t15 77q0 69 -28 104.5t-72.5 49.5t-100 14.5t-111.5 0.5
h-26v-339h87z" />
    <glyph glyph-name="C" unicode="C" horiz-adv-x="699" 
d="M406 11q48 0 89 17.5t72 46.5t52 66t29 77h10l-12 -124q-15 -16 -36.5 -34t-52.5 -32t-71.5 -23.5t-94.5 -9.5q-96 0 -164 31t-112 81.5t-64.5 115.5t-20.5 133t20.5 133t64.5 115.5t112 81.5t164 31q56 0 98 -10.5t73 -25.5t51.5 -32t32.5 -31l12 -124h-10
q-10 46 -33 84t-55 65.5t-71.5 42.5t-82.5 15q-56 0 -106 -23t-88 -67.5t-60.5 -108.5t-22.5 -146t22.5 -146t60.5 -108.5t88 -67.5t106 -23z" />
    <glyph glyph-name="D" unicode="D" horiz-adv-x="718" 
d="M327 707q96 0 164 -29t112 -78t64.5 -112.5t20.5 -131.5t-20.5 -131.5t-64.5 -112t-112 -77.5t-164 -29h-277v10q10 0 15.5 4.5t7.5 10.5q3 6 3 14v623q0 8 -3 14q-2 5 -7.5 9.5t-15.5 4.5v11h277zM312 22q56 0 106 21.5t88 63.5t60.5 104.5t22.5 144.5t-22.5 144.5
t-60.5 105t-88 64t-106 21.5h-144l1 -669h143z" />
    <glyph glyph-name="E" unicode="E" horiz-adv-x="572" 
d="M443 22q40 0 58.5 23t24.5 56h11l-10 -95h-477v10q10 0 15.5 4.5t7.5 10.5q3 6 3 14v623q0 8 -3 14q-2 5 -7.5 9.5t-15.5 4.5v10h477l10 -95h-11q-6 34 -24.5 57t-58.5 23h-274v-314h215q15 1 27 8q10 6 18 19t8 37h10v-144h-10q0 24 -8 37t-18 19q-12 7 -27 8h-215v-339
h274z" />
    <glyph glyph-name="F" unicode="F" horiz-adv-x="545" 
d="M524 611h-10q-7 34 -25 57t-58 23h-262v-327h215q15 1 27 8q10 6 18 19t8 37h11v-144h-11q0 24 -8 37t-18 19q-11 7 -26 8h-216v-303q0 -8 3 -14q2 -6 7.5 -10.5t14.5 -4.5v-10h-144v10q10 0 15.5 4.5t7.5 10.5q3 6 3 14v623q0 8 -3 14q-2 5 -7.5 9.5t-15.5 4.5v11h465z
" />
    <glyph glyph-name="G" unicode="G" horiz-adv-x="730" 
d="M685 356v-11q-10 0 -15 -4.5t-8 -9.5q-3 -6 -3 -14v-210q-13 -18 -36 -37.5t-56.5 -36t-77 -27.5t-97.5 -11q-96 0 -164 31t-112 81.5t-64.5 115.5t-20.5 133t20.5 133t64.5 115.5t112 81.5t164 31q56 0 96.5 -10.5t69.5 -25.5t48 -32t31 -31l12 -124h-10
q-10 46 -31.5 84t-51.5 65.5t-68 42.5t-81 15q-56 0 -106 -23t-88 -67.5t-60.5 -108.5t-22.5 -146t22.5 -146t60.5 -108t88 -67.5t106 -23.5q45 0 86 16t73 46v267h-180v16h299z" />
    <glyph glyph-name="H" unicode="H" horiz-adv-x="647" 
d="M596 696q-9 0 -14.5 -4.5t-7.5 -9.5q-3 -6 -3 -14v-623q0 -8 3 -14q2 -6 7.5 -10.5t14.5 -4.5v-10h-144v10q10 0 15.5 4.5t7.5 10.5q3 6 3 14v303h-309v-303q0 -8 3 -14q2 -6 7.5 -10.5t14.5 -4.5v-10h-144v10q10 0 15.5 4.5t7.5 10.5q3 6 3 14v623q0 8 -3 14
q-2 5 -7.5 9.5t-15.5 4.5v11h144v-11q-9 0 -14.5 -4.5t-7.5 -9.5q-3 -6 -3 -14v-304h309v304q0 8 -3 14q-2 5 -7.5 9.5t-15.5 4.5v11h144v-11z" />
    <glyph glyph-name="I" unicode="I" horiz-adv-x="245" 
d="M194 696q-9 0 -14.5 -4.5t-7.5 -9.5q-3 -6 -3 -14v-623q0 -8 3 -14q2 -6 7.5 -10.5t14.5 -4.5v-10h-144v10q10 0 15.5 4.5t7.5 10.5q3 6 3 14v623q0 8 -3 14q-2 5 -7.5 9.5t-15.5 4.5v11h144v-11z" />
    <glyph glyph-name="J" unicode="J" horiz-adv-x="249" 
d="M198 707v-11q-9 0 -14.5 -4.5t-7.5 -9.5q-3 -6 -3 -14v-652q-2 -36 -18 -64q-13 -23 -43.5 -43t-86.5 -20q-22 0 -45 6l5 14q12 -3 23 -3q24 0 38.5 11t22 25.5t9.5 29.5t2 23v673l-0.5 4.5t-3 10t-8 9.5t-14.5 4v11h144z" />
    <glyph glyph-name="K" unicode="K" horiz-adv-x="603" 
d="M50 707h144v-11q-9 0 -14.5 -4.5t-7.5 -9.5q-3 -6 -3 -14v-623q0 -8 3 -14q2 -6 7.5 -10.5t14.5 -4.5v-10h-144v10q10 0 15.5 4.5t7.5 10.5q3 6 3 14v623q0 8 -3 14q-2 5 -7.5 9.5t-15.5 4.5v11zM563 39q5 -6 15 -14.5t20 -8.5v-10h-101q-20 0 -31 15q-10 13 -26.5 34.5
t-37 48t-43.5 56t-45 58.5q-53 67 -113 144l233 246q20 21 28.5 35.5t8.5 24.5q0 12 -7 19q-7 9 -19 9v10h144v-10q-12 0 -29.5 -8t-35.5 -21t-35.5 -27.5t-30.5 -28.5l-183 -195z" />
    <glyph glyph-name="L" unicode="L" horiz-adv-x="547" 
d="M537 101l-10 -95h-477v10q10 0 15.5 4.5t7.5 10.5q3 6 3 14v622q0 8 -3 15q-2 5 -7.5 9.5t-15.5 4.5v10h144v-10q-9 0 -14.5 -4.5t-7.5 -9.5q-3 -7 -3 -15v-646h274q40 0 58.5 23.5t24.5 56.5h11z" />
    <glyph glyph-name="M" unicode="M" horiz-adv-x="787" 
d="M736 696q-9 0 -14.5 -4.5t-7.5 -9.5q-3 -6 -3 -14v-623q0 -8 3 -14q2 -6 7.5 -10.5t14.5 -4.5v-10h-144v10q10 0 15.5 4.5t7.5 10.5q3 6 3 14v606l-246 -580h-16l-251 561v-563q1 -15 8 -26q6 -10 19 -18t37 -8v-11h-144v11q24 0 37 8t19 18q7 11 8 26v580q-1 5 -3.5 13
t-9.5 15.5t-19 13t-31 5.5v11h140q12 0 19 -12l223 -499l216 510l112 1v-11z" />
    <glyph glyph-name="N" unicode="N" horiz-adv-x="657" 
d="M632 707v-11q-24 0 -37 -8t-19 -18q-7 -11 -8 -26v-648h-11l-452 650v-576q1 -15 8 -26q6 -11 19 -19t37 -8v-11h-144v11q24 0 37 8t19 18q7 11 8 26v574q-1 15 -8 27q-6 10 -19 18t-37 8v10h147q11 0 17 -8l363 -519v465q-1 15 -8 26q-6 10 -19 18t-37 8v11h144z" />
    <glyph glyph-name="O" unicode="O" horiz-adv-x="742" 
d="M371 717q96 0 161 -31t105 -81.5t57.5 -115.5t17.5 -133t-17.5 -133t-57.5 -115.5t-105 -81.5t-161 -31t-161 31t-105 81.5t-57.5 115.5t-17.5 133t17.5 133t57.5 115.5t105 81.5t161 31zM371 11q112 0 177 88.5t65 256.5t-65 256.5t-177 88.5q-56 0 -100.5 -23
t-76 -67.5t-48.5 -108.5t-17 -146t17 -146t48.5 -108.5t76 -67.5t100.5 -23z" />
    <glyph glyph-name="P" unicode="P" horiz-adv-x="603" 
d="M259 707q60 0 117 -3t102 -22t72.5 -58.5t27.5 -113.5q0 -66 -22.5 -104.5t-61.5 -59t-91 -26.5t-112 -6h-122l1 -269q0 -8 3 -14q2 -6 7.5 -10.5t14.5 -4.5v-10h-144v10q10 0 15.5 4.5t7.5 10.5q3 6 3 14v623q0 8 -3 14q-2 5 -7.5 9.5t-15.5 4.5v11h208zM306 330
q16 0 45 4t57.5 21.5t49.5 53.5t21 101q0 58 -14.5 93.5t-38.5 55t-56 26t-68 6.5h-133v-361h137z" />
    <glyph glyph-name="Q" unicode="Q" horiz-adv-x="750" 
d="M719 -3l-81 -96q-22 -3 -44 -3q-72 0 -129 29t-105 68q-92 2 -155 33.5t-102 82t-56 114.5t-17 131q0 68 17.5 133t57.5 115.5t105 81.5t161 31t161 -31t105 -81.5t57.5 -115.5t17.5 -133q0 -66 -16.5 -129t-54 -113.5t-98.5 -82.5t-150 -36h-2q6 -5 20.5 -10.5t36 -10.5
t48 -8.5t55.5 -3.5q41 0 83 9t80 32zM129 356q0 -82 17 -146t48.5 -108t76 -67.5t100.5 -23.5q112 0 177 88.5t65 256.5t-65 256.5t-177 88.5q-56 0 -100.5 -23t-76 -67.5t-48.5 -108.5t-17 -146z" />
    <glyph glyph-name="R" unicode="R" horiz-adv-x="640" 
d="M590 39q11 -18 35 -23v-10h-101q-19 -2 -31 15l-211 318h-113l1 -294q0 -8 3 -14q2 -6 7.5 -10.5t14.5 -4.5v-10h-144v10q10 0 15.5 4.5t7.5 10.5q3 6 3 14v623q0 8 -3 14q-2 5 -7.5 9.5t-15.5 4.5v11h208q54 0 110 -3t102 -20t75 -54.5t29 -106.5q0 -51 -15 -84.5
t-41 -54t-59.5 -30t-71.5 -12.5zM301 355q16 0 45.5 3t58.5 18.5t50.5 49.5t21.5 97q0 62 -17.5 95.5t-45.5 50t-63 19.5t-71 3h-111v-336h132z" />
    <glyph glyph-name="S" unicode="S" horiz-adv-x="562" 
d="M304 402q45 -21 85 -40t71 -43t49 -56t18 -78q0 -92 -67 -141t-185 -49q-53 0 -92.5 11.5t-67 27t-44.5 31t-24 22.5l-12 122h11q14 -58 37.5 -96.5t53.5 -61t65.5 -31.5t74.5 -9q78 0 122 38t44 96q0 35 -20.5 61.5t-50.5 46.5t-64.5 35.5t-63.5 28.5q-24 11 -58.5 26.5
t-67 39.5t-55 58.5t-22.5 83.5q0 44 16.5 79t47.5 60.5t74.5 39t97.5 13.5q60 2 114.5 -19t97.5 -62l13 -124h-11q-20 92 -71 140.5t-141 48.5q-35 0 -64.5 -9.5t-51 -26.5t-33.5 -41t-12 -54q0 -33 15.5 -57.5t41.5 -43t59.5 -34.5t69.5 -33z" />
    <glyph glyph-name="T" unicode="T" horiz-adv-x="564" 
d="M558 611h-10q-7 34 -25 57t-58 23h-137v-646q0 -8 3 -14t8 -10.5t15 -4.5v-10h-144v10q10 0 15 4.5t7 10.5q3 6 3 14v646h-136q-40 0 -58.5 -23t-24.5 -57h-11l10 96h534z" />
    <glyph glyph-name="U" unicode="U" horiz-adv-x="646" 
d="M620 706v-10q-24 0 -37 -8t-19 -18q-7 -12 -8 -27v-378q0 -64 -11.5 -114.5t-38.5 -85t-72 -52.5t-113 -18q-49 0 -94.5 12.5t-80 43t-55 81.5t-20.5 128v408q0 8 -3 14q-2 5 -7.5 9.5t-15.5 4.5v11h144v-11q-9 0 -14.5 -4.5t-7.5 -9.5q-3 -6 -3 -14v-441q0 -34 6 -72
t25.5 -70t55 -53t93.5 -21q37 -1 71 11.5t62 35.5q37 34 50 87.5t13 119.5v378q-1 15 -8 27q-6 10 -19 18t-37 8v10h144z" />
    <glyph glyph-name="V" unicode="V" horiz-adv-x="674" 
d="M669 707v-11q-24 1 -44 -12t-29 -35l-267 -654h-8l-280 673q-8 17 -16 22.5t-20 5.5v11h155v-11q-17 0 -22 -8t0 -19l226 -550l216 532q7 17 -2.5 31t-36.5 14v11h128z" />
    <glyph glyph-name="W" unicode="W" horiz-adv-x="963" 
d="M958 707v-11q-23 2 -41.5 -10t-26.5 -33l-215 -658h-8l-178 481l-180 -481h-8l-261 673q-8 17 -15.5 22.5t-19.5 5.5v11h155v-11q-15 0 -21 -7t-3 -18l205 -545l139 373l-62 169q-8 17 -15 22.5t-19 5.5v11h154v-11q-14 0 -20.5 -6.5t-4.5 -17.5l192 -537l166 513
q7 20 -3 34t-38 14v11h128z" />
    <glyph glyph-name="X" unicode="X" horiz-adv-x="651" 
d="M597 35q17 -21 44 -19v-10h-182v10q17 0 23.5 7t-1.5 21l-181 276l-185 -256q-14 -20 -9 -34t32 -14v-10h-127v10q23 0 43 10t40 37l196 272l-222 338q-8 11 -20.5 17.5t-26.5 5.5v11h181v-11q-16 0 -23.5 -6t2.5 -22l169 -257l171 237q15 20 10 34t-33 14v11h128v-11
q-24 0 -43.5 -10t-40.5 -38l-182 -252z" />
    <glyph glyph-name="Y" unicode="Y" horiz-adv-x="597" 
d="M591 707v-11q-26 2 -48.5 -11t-34.5 -37l-170 -296v-309q0 -10 7 -19q8 -8 19 -8v-10h-144v10q11 0 18 8t7 19v296l-193 334q-8 11 -20.5 17.5t-26.5 5.5v11h177v-11q-17 0 -24 -5.5t2 -22.5l169 -297l158 277q11 20 7.5 34t-30.5 14v11h127z" />
    <glyph glyph-name="Z" unicode="Z" horiz-adv-x="566" 
d="M437 22q40 0 58.5 23.5t24.5 55.5h10l-9 -95h-496v16l413 669h-311q-40 0 -58.5 -24t-24.5 -56h-10l10 96h496v-16l-411 -669h308z" />
    <glyph glyph-name="underscore" unicode="_" horiz-adv-x="513" 
d="M60 -21v16h392v-16h-392z" />
    <glyph glyph-name="a" unicode="a" horiz-adv-x="508" 
d="M442 45q0 -8 3 -14t8 -10.5t15 -4.5v-10h-99q-8 0 -14 6t-6 14v69q-11 -30 -27.5 -49t-35 -30.5t-38.5 -16t-38 -4.5h-17t-33.5 2t-41.5 8.5t-40.5 19.5t-30.5 34t-12 53t13.5 55.5t40 44t66 40t92.5 42.5q54 23 78 39t24 44v10q0 16 -6.5 32.5t-20 29.5t-33 21t-45.5 8
q-30 0 -52 -10.5t-36.5 -28t-21 -40.5t-6.5 -48l-75 26q5 15 18.5 35t37.5 38.5t60.5 31t88.5 12.5q51 0 86 -14t57 -36.5t31.5 -49t9.5 -52.5v-297zM349 334q-11 -11 -32.5 -22.5t-58.5 -29.5q-41 -20 -65.5 -45t-37.5 -49.5t-17 -46t-4 -34.5q0 -12 3 -28.5t12.5 -31.5
t26.5 -25.5t45 -10.5q38 0 63 18.5t39 43t20 48t6 33.5v180z" />
    <glyph glyph-name="b" unicode="b" horiz-adv-x="558" 
d="M325 494q45 0 82 -19.5t64 -53.5t41.5 -79.5t14.5 -96.5q0 -52 -13.5 -97.5t-40.5 -79.5t-66.5 -53.5t-91.5 -19.5q-32 0 -56.5 9t-41.5 24t-28.5 35t-18.5 41v-78q0 -8 -6 -14t-14 -6h-99v10q10 0 15.5 4.5t7.5 10.5q3 6 3 14v623q0 8 -3 14q-2 5 -7.5 9.5t-15.5 4.5v11
h99q8 0 14 -6t6 -14v-301q7 21 19 40.5t30.5 34.5t44.5 24t61 9zM299 16q32 0 56 17.5t40.5 48.5t25 73t8.5 90t-7.5 90t-24 73t-41 48.5t-59.5 17.5q-60 0 -93.5 -49.5t-33.5 -143.5v-77q0 -32 7.5 -65.5t23 -60.5t40 -44.5t58.5 -17.5z" />
    <glyph glyph-name="c" unicode="c" horiz-adv-x="511" 
d="M476 123q-13 -36 -40 -64q-23 -24 -64.5 -44t-107.5 -20q-62 0 -106.5 19.5t-72.5 53.5t-41 79.5t-13 97.5q0 51 13 96.5t41 79.5t72.5 53.5t106.5 19.5q42 0 74.5 -8.5t57 -23.5t42 -34.5t29.5 -41.5l-62 -45q-9 29 -19 54t-25 43.5t-36.5 29t-52.5 10.5
q-37 0 -64 -18.5t-44 -50t-25.5 -74t-8.5 -90.5t10.5 -91.5t32 -75.5t55.5 -49t82 -13q51 4 91.5 33.5t58.5 76.5z" />
    <glyph glyph-name="d" unicode="d" horiz-adv-x="557" 
d="M506 696q-9 0 -14.5 -4.5t-7.5 -9.5q-3 -6 -3 -14v-623q0 -8 3 -14q2 -6 7.5 -10.5t14.5 -4.5v-10h-98q-8 0 -14 6t-6 14v78q-7 -22 -19.5 -41.5t-31 -34.5t-44.5 -24t-61 -9q-45 0 -82 19.5t-63.5 53.5t-41.5 79.5t-15 97.5t15.5 97.5t44 79t70 53t92.5 19.5q29 0 51 -8
t38.5 -21t28 -29t18.5 -32v283q0 8 6 14t14 6h98v-11zM388 346q0 12 -7.5 34t-22.5 44t-38.5 38t-56.5 16q-32 0 -57 -18.5t-42 -50t-26 -74t-9 -90.5t7.5 -90t24 -73t41.5 -48.5t59 -17.5q60 0 93.5 49.5t33.5 142.5v138z" />
    <glyph glyph-name="e" unicode="e" horiz-adv-x="532" 
d="M309 16q51 4 91.5 33.5t58.5 76.5l16 -4q-13 -36 -40 -63q-23 -24 -64.5 -44t-107.5 -20q-62 0 -106.5 19.5t-72.5 53.5t-41 79.5t-13 97.5q0 51 13 96.5t41 79.5t72.5 53.5t106.5 19.5q78 0 124.5 -27.5t70.5 -65.5t31.5 -79t7.5 -67h-368v-10q0 -48 10.5 -91.5
t32 -75.5t55.5 -49t82 -13zM263 478q-31 0 -55 -16t-41 -44t-26.5 -65.5t-11.5 -81.5h268v1q-7 106 -42 156t-92 50z" />
    <glyph glyph-name="f" unicode="f" horiz-adv-x="417" 
d="M264 701q-21 0 -36 -8t-24.5 -21t-14.5 -29.5t-5 -32.5v-126h138v-16h-138v-423q0 -8 3 -14q2 -6 7.5 -10.5t14.5 -4.5v-10h-144v10q10 0 15.5 4.5t7.5 10.5q3 6 3 14v423h-66v16h66v64q0 4 0.5 17.5t5 32.5t14 40t27.5 38.5t45.5 29t67.5 11.5q39 0 67 -10t46.5 -22.5
t28.5 -24.5t14 -17l-63 -53q0 16 -3 35t-11.5 36t-24 28.5t-41.5 11.5z" />
    <glyph glyph-name="g" unicode="g" horiz-adv-x="558" 
d="M508 430q0 20 -17 37t-40 17q-12 0 -24.5 -5.5t-23.5 -18.5q42 -26 63.5 -68.5t21.5 -99.5q0 -45 -14.5 -82t-43 -64t-70 -41.5t-95.5 -14.5q-77 -3 -142 37l-24 -33q-20 -26 -11.5 -34.5t35.5 -9.5h236q38 0 65.5 -11.5t45.5 -31t26.5 -44.5t8.5 -53q0 -36 -16.5 -62
t-44 -42.5t-64.5 -24.5t-78 -8q-69 0 -139.5 19t-121.5 54l63 73q4 -8 18.5 -29t39.5 -44t61.5 -40.5t85.5 -17.5q47 0 81 10t56 26t32.5 35.5t10.5 39.5q0 31 -18 44.5t-53 13.5h-305q-9 0 -22 1.5t-24 7.5t-19 18.5t-8 33.5q0 12 2 21t7 18t14 20.5t23 28.5l24 30
q-69 55 -69 156q0 94 57 148t166 54q65 2 125 -26q23 30 47.5 41.5t47.5 11.5t40.5 -8t28.5 -19zM264 106q61 0 90.5 49t29.5 137t-29.5 137t-90.5 49q-60 0 -89.5 -49t-29.5 -137t29.5 -137t89.5 -49z" />
    <glyph glyph-name="h" unicode="h" horiz-adv-x="560" 
d="M494 45q0 -8 3 -14t8 -10.5t15 -4.5v-10h-144v10q10 0 15 4.5t7 10.5q3 6 3 14v342q0 16 -6.5 32t-19 29t-30.5 21t-42 8q-31 0 -55.5 -13t-42 -31.5t-26.5 -39.5t-9 -37v-311q0 -8 3 -14q2 -6 7.5 -10.5t14.5 -4.5v-10h-144v10q10 0 15.5 4.5t7.5 10.5q3 6 3 14v623
q0 8 -3 14q-2 5 -7.5 9.5t-15.5 4.5v11h99q8 0 14 -6t6 -14v-278q21 42 60.5 64.5t86.5 20.5q34 0 66 -10t56.5 -29.5t39.5 -48t15 -66.5v-295z" />
    <glyph glyph-name="i" unicode="i" horiz-adv-x="240" 
d="M118 550q-26 0 -44.5 18.5t-18.5 44.5t18.5 44.5t44.5 18.5q27 0 45 -18q14 -14 18 -32.5t-4 -36.5t-23.5 -28.5t-35.5 -10.5zM169 45q0 -8 3 -14q2 -6 7.5 -10.5t14.5 -4.5v-10h-144v10q10 0 15.5 4.5t7.5 10.5q3 6 3 14v400q0 8 -3 14q-2 5 -7.5 9.5t-15.5 4.5v11h99
q8 0 14 -6t6 -14v-419z" />
    <glyph glyph-name="j" unicode="j" horiz-adv-x="238" 
d="M124 550q-26 0 -44.5 18.5t-18.5 44.5t18.5 44.5t44.5 18.5q27 0 45 -18q14 -14 18 -32.5t-4 -36.5q-8 -17 -23.5 -28t-35.5 -11zM151 484q8 0 14 -6t6 -14v-565q-2 -36 -18 -64q-7 -12 -17.5 -23t-26 -20t-36.5 -14.5t-49 -5.5q-38 -1 -73 19l9 12q22 -14 46 -14
t38.5 11t22 25.5t9.5 29.5t2 23v567q0 8 -3 14q-2 5 -7.5 9.5t-15.5 4.5v11h99z" />
    <glyph glyph-name="k" unicode="k" horiz-adv-x="517" 
d="M478 41q4 -5 13 -15t20 -10v-10h-101q-22 0 -33 18l-155 233l-52 -58v-154q0 -8 3 -14q2 -6 7.5 -10.5t14.5 -4.5v-10h-144v10q10 0 15.5 4.5t7.5 10.5q3 6 3 14v623q0 8 -3 14q-2 5 -7.5 9.5t-15.5 4.5v11h99q6 0 14 -6q6 -8 6 -14v-464l148 162q20 22 25 36t5 24
q2 11 -7 19q-6 9 -19 9v11h144v-11q-14 0 -32.5 -11t-37.5 -26.5t-37 -32.5t-30 -30l-43 -46z" />
    <glyph glyph-name="l" unicode="l" horiz-adv-x="245" 
d="M169 45q0 -8 3 -14q2 -6 7.5 -10.5t14.5 -4.5v-10h-144v10q10 0 15.5 4.5t7.5 10.5q3 6 3 14v623q0 8 -3 14q-2 5 -7.5 9.5t-15.5 4.5v10h99q7 0 14 -5q6 -8 6 -14v-642z" />
    <glyph glyph-name="m" unicode="m" horiz-adv-x="775" 
d="M704 45q0 -8 3 -14t8 -10.5t15 -4.5v-10h-144v10q10 0 15 4.5t7 10.5q3 6 3 14v343q0 8 -2 23t-9.5 29.5t-21.5 25.5t-38 11q-28 0 -48 -13t-32.5 -31.5t-18 -39.5t-5.5 -37v-311q0 -8 3 -14t8 -10.5t15 -4.5v-10h-144v10q10 0 15.5 4.5t7.5 10.5q3 6 3 14v343q0 8 -1 23
t-7 29.5t-19 25.5t-37 11q-28 0 -49 -16.5t-34.5 -39t-20.5 -46.5t-7 -40v-290q0 -8 3 -14q2 -6 7.5 -10.5t14.5 -4.5v-10h-144v10q10 0 15.5 4.5t7.5 10.5q3 6 3 14v400q0 8 -3 14q-2 5 -7.5 9.5t-15.5 4.5v11h99q8 0 14 -6t6 -14v-62q7 17 17.5 33t26 29.5t36.5 21.5t48 8
q34 0 57.5 -8t39.5 -20.5t24.5 -27.5t12.5 -29q5 15 14.5 30t24.5 27.5t36.5 20t50.5 7.5q28 0 49 -5.5t36.5 -14.5t26 -20t17.5 -23q16 -28 18 -64v-322z" />
    <glyph glyph-name="n" unicode="n" horiz-adv-x="564" 
d="M493 45q0 -8 3 -14t8 -10.5t15 -4.5v-10h-144v10q10 0 15 4.5t7 10.5q3 6 3 14v342q0 16 -6.5 32t-19 29t-30.5 21t-42 8q-31 0 -55.5 -13t-42 -31.5t-26.5 -39.5t-9 -37v-311q0 -8 3 -14q2 -6 7.5 -10.5t14.5 -4.5v-10h-144v10q10 0 15.5 4.5t7.5 10.5q3 6 3 14v400
q0 8 -3 14q-2 5 -7.5 9.5t-15.5 4.5v11h99q8 0 14 -6t6 -14v-55q21 42 60.5 64.5t86.5 20.5q34 0 66 -10t56.5 -29.5t39.5 -48t15 -66.5v-295z" />
    <glyph glyph-name="o" unicode="o" horiz-adv-x="527" 
d="M263 494q62 0 106.5 -19.5t73 -53.5t41.5 -79.5t13 -96.5q0 -52 -13 -97.5t-41.5 -79.5t-72.5 -53.5t-107 -19.5q-62 0 -106.5 19.5t-72.5 53.5t-41 79.5t-13 97.5q0 51 13 96.5t41 79.5t72.5 53.5t106.5 19.5zM263 11q35 0 60.5 18.5t42 50t24.5 74.5t8 91t-8 90.5
t-24.5 74t-42 50t-60.5 18.5q-34 0 -59.5 -18.5t-42 -50t-24.5 -74t-8 -90.5t8 -91t24.5 -74.5t42 -50t59.5 -18.5z" />
    <glyph glyph-name="p" unicode="p" horiz-adv-x="557" 
d="M324 494q45 0 82 -19.5t64 -53.5t41.5 -79.5t14.5 -96.5q0 -52 -15.5 -97.5t-44 -79.5t-69.5 -53.5t-93 -19.5q-28 0 -50 8t-38.5 21t-28 29t-19.5 32v-263q0 -8 3 -15q3 -5 8 -9.5t15 -4.5v-10h-144v10q10 0 15.5 4.5t7.5 9.5q3 7 3 15v623q0 8 -3 14q-2 5 -7.5 9.5
t-15.5 4.5v11h99q6 0 14 -6q6 -8 5 -14v-78q8 21 20 40.5t30.5 34.5t44.5 24t61 9zM293 11q32 0 57 18.5t42.5 50t26.5 74.5t9 91t-7.5 90t-24 73t-41 48.5t-59.5 17.5q-60 0 -93.5 -49.5t-33.5 -143.5v-137q0 -12 7.5 -34.5t22.5 -44t38.5 -38t55.5 -16.5z" />
    <glyph glyph-name="q" unicode="q" horiz-adv-x="556" 
d="M506 473q-9 0 -14.5 -4.5t-7.5 -9.5q-3 -6 -3 -14v-623q0 -8 3 -15q2 -5 7.5 -9.5t14.5 -4.5v-10h-144v10q10 0 15.5 4.5t7.5 9.5q3 7 3 15v282q-7 -22 -19.5 -41.5t-31 -34.5t-44.5 -24t-61 -9q-45 0 -82 19.5t-63.5 53.5t-41.5 79.5t-15 97.5t15.5 97.5t44 79t70 53
t92.5 19.5q29 0 51 -8t38.5 -21t28 -29t18.5 -32v60q0 8 6 14t14 6h98v-11zM388 346q0 12 -7.5 34t-22.5 44t-38.5 38t-56.5 16q-32 0 -57 -18.5t-42 -50t-26 -74t-9 -90.5t7.5 -90t24 -73t41.5 -48.5t59 -17.5q60 0 93.5 49.5t33.5 142.5v138z" />
    <glyph glyph-name="r" unicode="r" horiz-adv-x="423" 
d="M169 395q15 51 54.5 75.5t90.5 24.5q21 0 38.5 -3t31.5 -8q16 -5 29 -11l-48 -85q-8 31 -33 49.5t-57 16.5q-36 0 -57 -19.5t-32 -42.5q-13 -28 -17 -63v-284q0 -8 3 -14q2 -6 7.5 -10.5t14.5 -4.5v-10h-144v10q10 0 15.5 4.5t7.5 10.5q3 6 3 14v400q0 8 -3 14
q-2 5 -7.5 9.5t-15.5 4.5v11h99q8 0 14 -6t6 -14v-69z" />
    <glyph glyph-name="s" unicode="s" horiz-adv-x="464" 
d="M282 276q39 -13 67 -27t46 -31.5t26 -39.5t8 -51q0 -35 -16.5 -60t-43.5 -41t-61.5 -23.5t-69.5 -7.5q-58 -2 -111 21t-92 66l53 56q3 -28 16 -51.5t33 -40.5t46 -26.5t54 -8.5q53 0 88 18.5t35 62.5q0 22 -13 39t-34 30.5t-49 24t-58 20.5q-40 13 -69.5 26t-49 29.5
t-29.5 39t-10 53.5q0 36 15 62.5t40.5 44t59 25.5t69.5 8q54 2 103.5 -18.5t85.5 -60.5l-48 -51q0 8 -4.5 26.5t-19 38t-42.5 34.5t-76 15q-18 0 -38.5 -4t-38 -13t-29 -24.5t-11.5 -38.5q0 -28 17.5 -47.5t43 -33.5t54.5 -23.5t53 -17.5z" />
    <glyph glyph-name="t" unicode="t" horiz-adv-x="331" 
d="M315 14q-33 -21 -72 -19q-56 0 -85.5 20t-43.5 44q-16 27 -18 63v346h-71v16h71v103l93 45v-148h123v-16h-123v-367q0 -8 2 -23t9.5 -29.5t21.5 -25.5t38 -11q12 0 24 3t22 10z" />
    <glyph glyph-name="u" unicode="u" horiz-adv-x="564" 
d="M488 45q0 -8 3 -14t8 -10.5t15 -4.5v-10h-99q-8 0 -14 6t-6 14v54q-21 -41 -60.5 -64t-86.5 -21q-15 1 -30.5 2.5t-30.5 5.5q-25 6 -46.5 19.5t-37 33t-24 43.5t-8.5 50v296q0 8 -3 14q-2 5 -7.5 9.5t-15.5 4.5v11h99q6 0 14 -6q6 -8 5 -14v-361q0 -16 6.5 -32.5
t19.5 -29.5t31 -21t42 -8q31 0 55.5 13t42 32t26.5 39.5t9 36.5v312q0 8 -3 14q-2 5 -7 9.5t-15 4.5v11h98q8 0 14 -6t6 -14v-419z" />
    <glyph glyph-name="v" unicode="v" horiz-adv-x="533" 
d="M528 484v-11q-24 1 -44 -11.5t-29 -34.5l-197 -432h-8l-208 450q-8 17 -16.5 22.5t-20.5 5.5v11h160v-11q-14 0 -19 -6.5t-3 -15.5l154 -332l140 306q8 18 -0.5 33t-36.5 15v11h128z" />
    <glyph glyph-name="w" unicode="w" horiz-adv-x="720" 
d="M715 484v-11q-23 2 -42 -11.5t-26 -36.5l-160 -430h-8l-116 302l-128 -302h-8l-186 450q-8 17 -16 22.5t-20 5.5v11h160v-11q-16 0 -21.5 -7.5t-1.5 -18.5l131 -322l82 193l-48 126q-12 29 -35 29v11h166v-11q-19 0 -27 -7t-2 -22l113 -310l107 291q7 18 -3.5 33
t-38.5 15v11h128z" />
    <glyph glyph-name="x" unicode="x" horiz-adv-x="516" 
d="M459 38q8 -11 20.5 -16.5t25.5 -5.5v-10h-181v10q17 0 24 7t-7 25l-114 166l-113 -150q-14 -20 -9 -34t32 -14v-10h-127v10q23 0 43 10t40 37l124 165l-149 213q-11 14 -22 23t-31 9v11h182v-11q-17 0 -24 -6t4 -23l110 -159l105 140q15 20 10 34t-33 14v11h128v-11
q-24 0 -44 -10t-40 -38l-116 -154z" />
    <glyph glyph-name="y" unicode="y" horiz-adv-x="533" 
d="M528 484v-11q-24 1 -44 -11.5t-29 -34.5q-57 -125 -106 -232q-21 -45 -41.5 -91t-39 -86.5t-32.5 -71.5t-21 -47q-27 -59 -58 -92.5t-82 -34.5l-29 74q16 -4 29.5 -6t25.5 -2q37 0 62 20.5t46 67.5q8 17 17 36.5t19 42.5l-203 440q-8 17 -16.5 22.5t-20.5 5.5v11h160v-11
q-14 0 -19 -6.5t-3 -15.5l154 -332l140 306q8 18 -0.5 33t-36.5 15v11h128z" />
    <glyph glyph-name="z" unicode="z" horiz-adv-x="468" 
d="M343 22q40 0 59 23.5t24 55.5h11l-10 -95h-402v16l310 446h-208q-40 0 -58.5 -24t-24.5 -56h-10l10 96h399v-16l-308 -446h208z" />
    <glyph glyph-name="braceleft" unicode="{" horiz-adv-x="315" 
d="M237 -87q19 2 35 12l8 -13q-34 -18 -71 -17q-28 0 -49.5 11.5t-34.5 32.5t-17.5 51t2.5 67q11 57 18 95.5t12 67.5q4 20 -5.5 34.5t-25.5 24.5t-33.5 14.5t-30.5 4.5v16q13 0 30.5 5t33.5 14.5t25.5 24.5t5.5 35q-5 29 -12 67.5t-18 95.5q-7 37 -2.5 66.5t17.5 50.5
t34.5 32.5t49.5 11.5q40 2 71 -17l-8 -13q-16 10 -35 12q-26 0 -34.5 -21.5t-7 -53.5t8.5 -69.5t12 -69.5q11 -63 2.5 -98.5t-43.5 -57.5q-42 -20 -85 -23q46 -3 85 -22q35 -22 43.5 -57.5t-2.5 -98.5q-5 -32 -12.5 -69.5t-8.5 -70t7.5 -54t34.5 -21.5z" />
    <glyph glyph-name="bar" unicode="|" horiz-adv-x="156" 
d="M70 -79v786h16v-786h-16z" />
    <glyph glyph-name="braceright" unicode="}" horiz-adv-x="315" 
d="M270 298q-13 0 -30.5 -4.5t-33.5 -14.5t-25.5 -24.5t-5.5 -34.5q5 -29 12 -67.5t18 -95.5q13 -74 -15 -117.5t-84 -43.5q-36 -3 -71 16l8 13q16 -10 35 -12q26 0 34.5 21.5t7 54t-8.5 70t-12 69.5q-11 63 -2.5 98.5t43.5 57.5q39 19 85 22q-43 3 -85 23
q-35 22 -43.5 57.5t2.5 98.5q5 32 12 69.5t8.5 69.5t-7 53.5t-34.5 21.5q-19 -2 -35 -12l-8 13q31 19 71 17q28 0 49.5 -11.5t34.5 -32.5t17.5 -50.5t-2.5 -66.5q-11 -57 -18 -95.5t-12 -67.5q-4 -20 5.5 -35t25.5 -24.5t33.5 -14.5t30.5 -5v-16z" />
    <glyph glyph-name="uni00A0" unicode="&#xa0;" horiz-adv-x="315" 
 />
    </font>
</defs>
</svg>
